<?xml version="1.0" encoding="UTF-8" standalone="no"?>
<!-- Created with Inkscape (http://www.inkscape.org/) -->

<svg
   width="1920"
   height="1080"
   viewBox="0 0 1920 1080"
   version="1.1"
   id="svg1"
   xml:space="preserve"
   xmlns:xlink="http://www.w3.org/1999/xlink"
   xmlns="http://www.w3.org/2000/svg"
   xmlns:svg="http://www.w3.org/2000/svg"
   xmlns:rdf="http://www.w3.org/1999/02/22-rdf-syntax-ns#"
   xmlns:cc="http://creativecommons.org/ns#"
   xmlns:dc="http://purl.org/dc/elements/1.1/"><title
     id="title1">Blue Fury</title><defs
     id="defs1"><linearGradient
       id="linearGradient43"><stop
         style="stop-color:#ffffff;stop-opacity:1;"
         offset="0"
         id="stop43" /><stop
         style="stop-color:#cceaff;stop-opacity:1;"
         offset="1"
         id="stop44" /></linearGradient><linearGradient
       id="linearGradient38"><stop
         style="stop-color:#6d7bc5;stop-opacity:1;"
         offset="0"
         id="stop38" /><stop
         style="stop-color:#6da1c5;stop-opacity:1;"
         offset="1"
         id="stop39" /></linearGradient><linearGradient
       id="linearGradient36"><stop
         style="stop-color:#475ab8;stop-opacity:1;"
         offset="0"
         id="stop36" /><stop
         style="stop-color:#478bb8;stop-opacity:1;"
         offset="1"
         id="stop37" /></linearGradient><linearGradient
       id="linearGradient33"><stop
         style="stop-color:#3a4992;stop-opacity:1;"
         offset="0"
         id="stop33" /><stop
         style="stop-color:#3a6e92;stop-opacity:1;"
         offset="1"
         id="stop34" /></linearGradient><linearGradient
       id="linearGradient23"><stop
         style="stop-color:#3a4892;stop-opacity:1;"
         offset="0"
         id="stop23" /><stop
         style="stop-color:#2a506a;stop-opacity:1;"
         offset="1"
         id="stop24" /></linearGradient><linearGradient
       id="linearGradient18"><stop
         style="stop-color:#394993;stop-opacity:1;"
         offset="0"
         id="stop18" /><stop
         style="stop-color:#396f93;stop-opacity:1;"
         offset="1"
         id="stop21" /></linearGradient><linearGradient
       id="linearGradient15"><stop
         style="stop-color:#485bb7;stop-opacity:1;"
         offset="0"
         id="stop15" /><stop
         style="stop-color:#4889b7;stop-opacity:1;"
         offset="1"
         id="stop16" /></linearGradient><linearGradient
       id="linearGradient83"><stop
         style="stop-color:#90bad5;stop-opacity:0.80000001;"
         offset="0"
         id="stop83" /><stop
         style="stop-color:#90bad5;stop-opacity:0;"
         offset="0.89999998"
         id="stop84" /></linearGradient><linearGradient
       id="linearGradient51"><stop
         style="stop-color:#b5d1e3;stop-opacity:0.80000001;"
         offset="0"
         id="stop51" /><stop
         style="stop-color:#b5d1e3;stop-opacity:0;"
         offset="0.89939791"
         id="stop52" /></linearGradient><linearGradient
       id="linearGradient19"><stop
         style="stop-color:#b5d1e3;stop-opacity:0.80000001;"
         offset="0"
         id="stop19" /><stop
         style="stop-color:#b5d1e3;stop-opacity:0;"
         offset="0.89747888"
         id="stop20" /></linearGradient><linearGradient
       id="linearGradient1392"><stop
         style="stop-color:#ffffff;stop-opacity:1;"
         offset="0"
         id="stop1392" /><stop
         style="stop-color:#ffffff;stop-opacity:0;"
         offset="1"
         id="stop1393" /></linearGradient><linearGradient
       id="linearGradient1368"><stop
         style="stop-color:#ffffff;stop-opacity:0.80000001;"
         offset="0"
         id="stop1368" /><stop
         style="stop-color:#bfa3f5;stop-opacity:0;"
         offset="1"
         id="stop1369" /></linearGradient><linearGradient
       id="linearGradient1366"><stop
         style="stop-color:#98b2ff;stop-opacity:1;"
         offset="0.45041475"
         id="stop1366" /><stop
         style="stop-color:#005a99;stop-opacity:1;"
         offset="1"
         id="stop1367" /></linearGradient><linearGradient
       id="linearGradient1362"><stop
         style="stop-color:#4152aa;stop-opacity:1;"
         offset="0"
         id="stop1362" /><stop
         style="stop-color:#417faa;stop-opacity:1;"
         offset="1"
         id="stop1363" /></linearGradient><linearGradient
       id="linearGradient1358"><stop
         style="stop-color:#5163bd;stop-opacity:0.98850554;"
         offset="0"
         id="stop1358" /><stop
         style="stop-color:#5193bd;stop-opacity:0.99990249;"
         offset="1"
         id="stop1359" /></linearGradient><linearGradient
       id="linearGradient1344"><stop
         style="stop-color:#6d7cc5;stop-opacity:1;"
         offset="0"
         id="stop1344" /><stop
         style="stop-color:#6da1c5;stop-opacity:1;"
         offset="1"
         id="stop1345" /></linearGradient><linearGradient
       id="linearGradient1342"><stop
         style="stop-color:#6a7ac8;stop-opacity:1;"
         offset="0"
         id="stop1342" /><stop
         style="stop-color:#6aa3c8;stop-opacity:1;"
         offset="1"
         id="stop1343" /></linearGradient><linearGradient
       id="linearGradient1340"><stop
         style="stop-color:#5163bd;stop-opacity:1;"
         offset="0"
         id="stop1340" /><stop
         style="stop-color:#5193bd;stop-opacity:1;"
         offset="1"
         id="stop1341" /></linearGradient><linearGradient
       id="linearGradient1338"><stop
         style="stop-color:#4152aa;stop-opacity:1;"
         offset="0"
         id="stop1338" /><stop
         style="stop-color:#417faa;stop-opacity:1;"
         offset="1"
         id="stop1339" /></linearGradient><linearGradient
       id="linearGradient1336"><stop
         style="stop-color:#38468f;stop-opacity:1;"
         offset="0"
         id="stop1336" /><stop
         style="stop-color:#386c8f;stop-opacity:1;"
         offset="1"
         id="stop1337" /></linearGradient><linearGradient
       id="linearGradient1334"><stop
         style="stop-color:#2e3a75;stop-opacity:1;"
         offset="0"
         id="stop1334" /><stop
         style="stop-color:#2e5975;stop-opacity:1;"
         offset="1"
         id="stop1335" /></linearGradient><linearGradient
       id="linearGradient1332"><stop
         style="stop-color:#323f80;stop-opacity:1;"
         offset="0"
         id="stop1332" /><stop
         style="stop-color:#326180;stop-opacity:1;"
         offset="1"
         id="stop1333" /></linearGradient><linearGradient
       id="linearGradient1330"><stop
         style="stop-color:#283266;stop-opacity:1;"
         offset="0"
         id="stop1330" /><stop
         style="stop-color:#284d66;stop-opacity:1;"
         offset="1"
         id="stop1331" /></linearGradient><linearGradient
       id="linearGradient1328"><stop
         style="stop-color:#1e264d;stop-opacity:1;"
         offset="0"
         id="stop1328" /><stop
         style="stop-color:#1e3a4d;stop-opacity:1;"
         offset="1"
         id="stop1329" /></linearGradient><linearGradient
       id="linearGradient1326"><stop
         style="stop-color:#323f80;stop-opacity:1;"
         offset="0"
         id="stop1326" /><stop
         style="stop-color:#326080;stop-opacity:1;"
         offset="1"
         id="stop1327" /></linearGradient><linearGradient
       id="linearGradient1324"><stop
         style="stop-color:#283266;stop-opacity:1;"
         offset="0"
         id="stop1324" /><stop
         style="stop-color:#284d66;stop-opacity:1;"
         offset="1"
         id="stop1325" /></linearGradient><linearGradient
       id="linearGradient1322"><stop
         style="stop-color:#1e264d;stop-opacity:1;"
         offset="0"
         id="stop1322" /><stop
         style="stop-color:#1e3a4d;stop-opacity:1;"
         offset="1"
         id="stop1323" /></linearGradient><linearGradient
       id="linearGradient1320"><stop
         style="stop-color:#37458c;stop-opacity:1;"
         offset="0"
         id="stop1320" /><stop
         style="stop-color:#37698c;stop-opacity:1;"
         offset="1"
         id="stop1321" /></linearGradient><linearGradient
       id="linearGradient1318"><stop
         style="stop-color:#283266;stop-opacity:1;"
         offset="0"
         id="stop1318" /><stop
         style="stop-color:#284d66;stop-opacity:1;"
         offset="1"
         id="stop1319" /></linearGradient><linearGradient
       id="linearGradient1316"><stop
         style="stop-color:#1e264d;stop-opacity:1;"
         offset="0"
         id="stop1316" /><stop
         style="stop-color:#1e3a4d;stop-opacity:1;"
         offset="1"
         id="stop1317" /></linearGradient><linearGradient
       id="linearGradient1314"><stop
         style="stop-color:#2d3973;stop-opacity:1;"
         offset="0"
         id="stop1314" /><stop
         style="stop-color:#2d5773;stop-opacity:1;"
         offset="1"
         id="stop1315" /></linearGradient><linearGradient
       id="linearGradient1312"><stop
         style="stop-color:#232c59;stop-opacity:1;"
         offset="0"
         id="stop1312" /><stop
         style="stop-color:#234459;stop-opacity:1;"
         offset="1"
         id="stop1313" /></linearGradient><linearGradient
       id="linearGradient1310"><stop
         style="stop-color:#191f40;stop-opacity:1;"
         offset="0"
         id="stop1310" /><stop
         style="stop-color:#193040;stop-opacity:1;"
         offset="1"
         id="stop1311" /></linearGradient><linearGradient
       id="linearGradient1308"><stop
         style="stop-color:#283266;stop-opacity:1;"
         offset="0"
         id="stop1308" /><stop
         style="stop-color:#284d66;stop-opacity:1;"
         offset="1"
         id="stop1309" /></linearGradient><linearGradient
       id="linearGradient1306"><stop
         style="stop-color:#1e264d;stop-opacity:1;"
         offset="0"
         id="stop1306" /><stop
         style="stop-color:#1e3a4d;stop-opacity:0.99994475;"
         offset="1"
         id="stop1307" /></linearGradient><linearGradient
       id="linearGradient1304"><stop
         style="stop-color:#141933;stop-opacity:1;"
         offset="0"
         id="stop1305" /><stop
         style="stop-color:#142633;stop-opacity:1;"
         offset="1"
         id="stop1304" /></linearGradient><linearGradient
       xlink:href="#linearGradient1304"
       id="linearGradient1305"
       x1="0"
       y1="1077.9998"
       x2="1920"
       y2="-2"
       gradientUnits="userSpaceOnUse" /><linearGradient
       xlink:href="#linearGradient1306"
       id="linearGradient1307"
       x1="0"
       y1="1098"
       x2="1920"
       y2="18"
       gradientUnits="userSpaceOnUse" /><linearGradient
       xlink:href="#linearGradient1308"
       id="linearGradient1309"
       x1="0"
       y1="1114"
       x2="1920"
       y2="34"
       gradientUnits="userSpaceOnUse" /><linearGradient
       xlink:href="#linearGradient1310"
       id="linearGradient1311"
       x1="0"
       y1="1079.9998"
       x2="1920"
       y2="0"
       gradientUnits="userSpaceOnUse" /><linearGradient
       xlink:href="#linearGradient1312"
       id="linearGradient1313"
       x1="0"
       y1="1080"
       x2="1920"
       y2="0"
       gradientUnits="userSpaceOnUse" /><linearGradient
       xlink:href="#linearGradient1314"
       id="linearGradient1315"
       x1="0"
       y1="1079.9998"
       x2="1920"
       y2="0"
       gradientUnits="userSpaceOnUse" /><linearGradient
       xlink:href="#linearGradient1316"
       id="linearGradient1317"
       x1="1.7462298e-09"
       y1="1046"
       x2="1920"
       y2="0"
       gradientUnits="userSpaceOnUse" /><linearGradient
       xlink:href="#linearGradient1318"
       id="linearGradient1319"
       x1="0"
       y1="1079.9998"
       x2="1920"
       y2="0"
       gradientUnits="userSpaceOnUse" /><linearGradient
       xlink:href="#linearGradient1320"
       id="linearGradient1321"
       x1="0"
       y1="1079.9998"
       x2="1920"
       y2="0"
       gradientUnits="userSpaceOnUse" /><linearGradient
       xlink:href="#linearGradient1322"
       id="linearGradient1323"
       x1="0"
       y1="1079.9998"
       x2="1920"
       y2="0"
       gradientUnits="userSpaceOnUse" /><linearGradient
       xlink:href="#linearGradient1324"
       id="linearGradient1325"
       x1="0"
       y1="1079.9998"
       x2="1920"
       y2="0"
       gradientUnits="userSpaceOnUse" /><linearGradient
       xlink:href="#linearGradient1326"
       id="linearGradient1327"
       x1="0"
       y1="1080"
       x2="1920"
       y2="0"
       gradientUnits="userSpaceOnUse" /><linearGradient
       xlink:href="#linearGradient1328"
       id="linearGradient1329"
       x1="0"
       y1="1079.9998"
       x2="1920"
       y2="0"
       gradientUnits="userSpaceOnUse" /><linearGradient
       xlink:href="#linearGradient1330"
       id="linearGradient1331"
       x1="0"
       y1="1080"
       x2="1920"
       y2="0"
       gradientUnits="userSpaceOnUse" /><linearGradient
       xlink:href="#linearGradient1332"
       id="linearGradient1333"
       x1="0"
       y1="1079.9998"
       x2="1920"
       y2="0"
       gradientUnits="userSpaceOnUse" /><linearGradient
       xlink:href="#linearGradient1334"
       id="linearGradient1335"
       x1="-10"
       y1="1080"
       x2="1910"
       y2="0"
       gradientUnits="userSpaceOnUse"
       gradientTransform="translate(10,12)" /><linearGradient
       xlink:href="#linearGradient1336"
       id="linearGradient1337"
       x1="-10"
       y1="1080"
       x2="1910"
       y2="0"
       gradientUnits="userSpaceOnUse"
       gradientTransform="translate(10,12)" /><linearGradient
       xlink:href="#linearGradient1338"
       id="linearGradient1339"
       x1="-10"
       y1="1080"
       x2="1910"
       y2="0"
       gradientUnits="userSpaceOnUse"
       gradientTransform="translate(10,12)" /><linearGradient
       xlink:href="#linearGradient1340"
       id="linearGradient1341"
       x1="-10"
       y1="1079.9998"
       x2="1910"
       y2="0"
       gradientUnits="userSpaceOnUse"
       gradientTransform="translate(10,12)" /><linearGradient
       xlink:href="#linearGradient1342"
       id="linearGradient1343"
       x1="-10"
       y1="1079.9998"
       x2="1910"
       y2="0"
       gradientUnits="userSpaceOnUse"
       gradientTransform="translate(10,12)" /><linearGradient
       xlink:href="#linearGradient1344"
       id="linearGradient1345"
       x1="-10"
       y1="1079.9998"
       x2="1910"
       y2="0"
       gradientUnits="userSpaceOnUse"
       gradientTransform="translate(10,12)" /><linearGradient
       xlink:href="#linearGradient1358"
       id="linearGradient1359"
       x1="-10"
       y1="1080"
       x2="1910"
       y2="0"
       gradientUnits="userSpaceOnUse"
       gradientTransform="translate(10,12)" /><linearGradient
       xlink:href="#linearGradient1362"
       id="linearGradient1363"
       x1="-10"
       y1="1080"
       x2="1910"
       y2="0"
       gradientUnits="userSpaceOnUse"
       gradientTransform="translate(10,12)" /><linearGradient
       xlink:href="#linearGradient1366"
       id="linearGradient1367"
       x1="0"
       y1="1080"
       x2="1920"
       y2="0"
       gradientUnits="userSpaceOnUse" /><radialGradient
       xlink:href="#linearGradient1368"
       id="radialGradient1369"
       cx="123.8804"
       cy="723.17926"
       fx="123.8804"
       fy="723.17926"
       r="500"
       gradientUnits="userSpaceOnUse"
       gradientTransform="translate(-98.344234,-88.289177)" /><linearGradient
       xlink:href="#linearGradient1392"
       id="linearGradient1393"
       x1="0"
       y1="1079.9998"
       x2="1920"
       y2="0"
       gradientUnits="userSpaceOnUse"
       gradientTransform="translate(-107.96237,14.09303)" /><linearGradient
       xlink:href="#linearGradient19"
       id="linearGradient20"
       x1="0"
       y1="1079.9998"
       x2="1920"
       y2="0"
       gradientUnits="userSpaceOnUse"
       gradientTransform="translate(76.77826,40.592491)" /><linearGradient
       xlink:href="#linearGradient51"
       id="linearGradient52"
       x1="0"
       y1="1080"
       x2="1920"
       y2="0"
       gradientUnits="userSpaceOnUse" /><linearGradient
       xlink:href="#linearGradient83"
       id="linearGradient84"
       x1="117.83923"
       y1="931.7403"
       x2="1768.4375"
       y2="3.2787838"
       gradientUnits="userSpaceOnUse"
       gradientTransform="matrix(1.1632146,0,0,1.1632146,-137.07231,-3.8139292)" /><linearGradient
       xlink:href="#linearGradient15"
       id="linearGradient16"
       x1="37.257999"
       y1="797.93536"
       x2="1957.2581"
       y2="-282.06467"
       gradientUnits="userSpaceOnUse"
       gradientTransform="translate(-37.258,282.06466)" /><linearGradient
       xlink:href="#linearGradient18"
       id="linearGradient21"
       x1="37.257999"
       y1="797.93536"
       x2="1957.2581"
       y2="-282.06467"
       gradientUnits="userSpaceOnUse"
       gradientTransform="translate(-37.258,282.06466)" /><linearGradient
       xlink:href="#linearGradient23"
       id="linearGradient24"
       x1="0"
       y1="1079.9998"
       x2="1920"
       y2="0"
       gradientUnits="userSpaceOnUse" /><linearGradient
       xlink:href="#linearGradient33"
       id="linearGradient34"
       x1="-1767.1802"
       y1="1152.269"
       x2="856.03949"
       y2="-323.29169"
       gradientUnits="userSpaceOnUse" /><linearGradient
       xlink:href="#linearGradient36"
       id="linearGradient37"
       x1="-1767.1802"
       y1="1152.269"
       x2="856.03949"
       y2="-323.29169"
       gradientUnits="userSpaceOnUse" /><linearGradient
       xlink:href="#linearGradient38"
       id="linearGradient39"
       x1="-1767.1802"
       y1="1152.269"
       x2="856.03949"
       y2="-323.29169"
       gradientUnits="userSpaceOnUse" /><linearGradient
       xlink:href="#linearGradient43"
       id="linearGradient44"
       x1="1242.6111"
       y1="567.32056"
       x2="1335.8547"
       y2="567.32056"
       gradientUnits="userSpaceOnUse" /></defs><g
     id="layer9"><rect
       style="fill:url(#linearGradient1367);fill-opacity:1;stroke-width:3.2;stroke-linecap:round;stroke-linejoin:round"
       id="rect1272"
       width="1920"
       height="1079.9998"
       x="0"
       y="0" /><circle
       style="fill:url(#radialGradient1369);stroke-width:3.2;stroke-linecap:round;stroke-linejoin:round"
       id="path1367"
       cx="25.536171"
       cy="634.89008"
       r="500" /><path
       id="path1369"
       style="fill:url(#linearGradient1393);stroke-width:0.634645;stroke-linecap:round;stroke-linejoin:round"
       d="m 1503.4166,54.948664 c 0,0 -0.9367,-4.959314 -2.6197,-6.642284 -1.683,-1.68296 -6.6423,-2.61967 -6.6423,-2.61967 0,0 4.9593,-0.93671 6.6423,-2.61968 1.683,-1.68296 2.6197,-6.64227 2.6197,-6.64227 0,0 0.9367,4.95931 2.6196,6.64227 1.683,1.68297 6.6423,2.61968 6.6423,2.61968 0,0 -4.9593,0.93671 -6.6423,2.61967 -1.6829,1.68297 -2.6196,6.642284 -2.6196,6.642284 z" /><use
       id="use1417"
       xlink:href="#path1369"
       transform="matrix(0.80976468,0,0,0.80976451,506.90497,52.400633)" /><use
       id="use1431"
       xlink:href="#path1369"
       transform="matrix(0.64781175,0,0,0.64781161,894.15784,363.23033)" /><use
       id="use1436"
       xlink:href="#path1369"
       transform="matrix(0.70179606,0,0,0.70179591,563.12895,228.74462)" /><use
       id="use1437"
       xlink:href="#path1369"
       transform="matrix(0.97171762,0,0,0.97171741,273.63464,177.7084)" /><use
       id="use1437-0"
       xlink:href="#path1369"
       transform="matrix(0.97171762,0,0,0.97171741,407.56237,600.92477)" /><use
       id="use1446"
       xlink:href="#path1369"
       transform="matrix(0.86374899,0,0,0.86374881,608.76216,173.12779)" /><use
       id="use1448"
       xlink:href="#path1369"
       transform="matrix(0.91773331,0,0,0.91773311,509.37719,233.11068)" /><use
       id="use1449"
       xlink:href="#path1369"
       transform="translate(351.44612,99.090123)" /><use
       id="use1449-4"
       xlink:href="#path1369"
       transform="translate(45.566969,514.60681)" /><use
       id="use1451"
       xlink:href="#path1369"
       transform="matrix(0.75578037,0,0,0.75578021,530.70594,137.58852)" /><use
       id="use1451-7"
       xlink:href="#path1369"
       transform="matrix(0.75578037,0,0,0.75578021,247.47181,552.82103)" /><use
       id="use1456"
       xlink:href="#path1369"
       transform="matrix(0.53984312,0,0,0.53984301,797.78257,35.510381)" /><use
       id="use1456-1"
       xlink:href="#path1369"
       transform="matrix(0.53984312,0,0,0.53984301,959.62144,483.26647)" /><use
       id="use1456-3"
       xlink:href="#path1369"
       transform="matrix(0.53984312,0,0,0.53984301,628.76719,473.97928)" /><use
       id="use1460"
       xlink:href="#path1369"
       transform="matrix(0.48585881,0,0,0.4858587,1041.3717,18.952842)" /><use
       id="use1469"
       xlink:href="#path1369"
       transform="translate(254.26333,631.11219)" /><use
       id="use1475"
       xlink:href="#path1369"
       transform="matrix(0.53984312,0,0,0.53984301,1088.7465,428.15785)" /><use
       id="use1476"
       xlink:href="#path1369"
       transform="translate(219.97963,317.39164)" /></g><g
     id="layer6"
     style="display:inline"><path
       id="path6"
       style="fill:url(#linearGradient20);fill-opacity:1;stroke-width:2.43446;stroke-linecap:round;stroke-linejoin:round"
       d="m 546.28217,621.63351 c -5.9621,-0.0236 -11.81774,2.9012 -15.44532,7.61914 -11.14562,-5.95824 -27.29594,-2.37637 -33.08789,9.46484 -10.69812,-5.64358 -22.80733,3.39015 -25.96875,12.19336 -8.73142,-0.29558 -17.34446,6.3894 -18.55664,14.98628 -8.93988,0.0302 -18.78809,4.03486 -22.8457,12.50976 -14.94723,-4.3527 -24.86645,18.9466 -7.9891,23.18853 15.22011,-0.54727 42.10457,0.61298 49.11996,-4.59087 7.01539,-5.20385 55.3298,17.37012 61.08008,2.06641 5.75028,-15.30371 79.77699,15.30529 81.625,1.25586 1.84801,-14.04943 29.58906,-13.49012 21.98437,-26.46094 -7.60469,-12.97082 -12.45885,-11.6562 -21.98437,-8.93164 -2.91555,-11.01006 -17.69729,-16.48768 -28.89063,-13.15427 -5.48415,-4.45664 -12.48527,-6.67042 -19.4375,-7.31055 1.87344,-11.51909 -7.82499,-23.12078 -19.60351,-22.83591 z" /><path
       id="path21"
       style="fill:url(#linearGradient52);stroke-width:2.04354;stroke-linecap:round;stroke-linejoin:round"
       d="m 229.91081,114.76816 c -11.13027,-0.35477 -23.97952,7.58535 -23.9076,19.80679 -13.92258,-4.68749 -31.65079,4.44337 -33.3497,19.48598 -16.44085,-0.65263 -32.21056,14.05106 -31.0311,30.62744 -10.75667,-0.004 -22.03698,4.67109 -28.0725,13.93085 -14.110723,-4.6498 -23.019529,8.97499 -36.331726,8.15304 -17.659711,7.93172 -0.998621,26.88494 13.121094,25.92983 14.119712,-0.95511 40.270292,-3.19256 51.283132,4.42314 11.01284,7.6157 43.02703,9.19163 63.57299,2.7209 20.54596,-6.47074 48.45233,-6.06067 64.01121,0.15408 15.55888,6.21475 52.14949,-18.62219 70.0759,-10.32872 9.03708,4.18091 61.17658,0.10074 60.06105,-10.09345 -1.08411,-9.90708 -25.45635,-11.73937 -15.87015,-24.66297 -0.16338,-14.00494 -18.73019,-17.06512 -27.4492,-16.00385 2.08025,-16.60507 -20.05644,-12.13044 -22.07093,-23.69448 -6.60478,-8.82689 -21.00398,-9.38955 -28.44517,-1.41324 -3.86483,-12.39287 -20.12008,-5.41762 -24.08995,-17.32774 -7.58815,-6.23491 -18.71502,-7.62897 -27.65085,-3.42948 -1.04365,-11.5462 -13.20192,-18.4921 -23.8565,-18.27812 z" /><path
       id="path54"
       style="fill:url(#linearGradient84);stroke-width:6.15455;stroke-linecap:round;stroke-linejoin:round"
       d="m 1443.5719,605.23708 c -11.9912,0.68788 -11.1611,15.83078 -24.6986,12.84596 -10.692,0.51929 -4.219,22.33181 -17.5087,12.41234 -7.3547,-0.0794 -14.544,4.39131 -17.6215,11.09274 -12.3617,-2.26971 -33.7322,1.31205 -33.4999,17.38103 -7.5456,7.65967 -21.7912,-2.48578 -28.3613,8.95758 l -1.2883,4.08855 c 2.9032,5.66081 -16.1959,4.87347 -7.6992,13.48914 9.8628,7.53778 21.2215,-0.2336 31.5113,4.71828 7.1542,-1.41613 14.2185,-3.90029 21.0853,-2.97133 5.9621,11.62222 21.2879,2.41748 30.172,8.68696 11.812,3.39562 22.4959,-3.99962 33.8752,0.67783 l 8.1255,-1.26309 c 8.9339,-8.84026 21.5851,2.26825 31.7942,-4.17622 7.298,6.89749 20.0425,6.73891 27.0726,-0.49584 11.261,3.08458 23.7706,2.17885 34.2061,-3.27562 12.2198,8.02304 24.5495,-1.79703 37.0607,1.58666 11.6544,1.19617 15.0768,-15.12144 2.2397,-15.98362 -8.4014,1.00362 -13.8861,-4.97729 -13.4759,-12.9848 -5.4874,-6.89048 -8.8969,-18.46827 -20.032,-16.72256 -2.6457,-10.24614 -11.1332,-14.38443 -20.837,-16.05507 -2.0584,-9.8588 -17.1388,-11.81016 -21.3666,-2.35903 -6.4591,-5.33207 -17.0346,-5.26924 -23.1998,0.53717 -2.4953,-10.07766 -17.0947,-3.51154 -17.3301,-14.72274 l -4.6631,-4.0399 -5.5602,-1.42446 z" /></g><g
     id="layer8"
     style="display:inline"><path
       style="display:inline;fill:url(#linearGradient1363);fill-opacity:1;stroke-width:2.86189;stroke-linecap:round;stroke-linejoin:round"
       d="m 893.32357,526.45844 c 0,0 32.84293,51.75379 38.69632,79.53712 6.36402,30.20712 17.00906,89.056 17.00906,89.056 l 25.42898,-2.24892 c 0,0 4.73554,-57.7615 12.17231,-86.04055 7.91976,-30.11566 39.20356,-84.7948 39.20356,-84.7948 z"
       id="path1258" /><path
       style="display:inline;fill:url(#linearGradient1359);fill-opacity:0.988506;stroke-width:2.86189;stroke-linecap:round;stroke-linejoin:round"
       d="m 893.32357,526.45844 c 0,0 32.84294,51.75379 38.69632,79.53712 0.0858,0.40742 0.17429,0.81967 0.25981,1.23768 2.02938,9.92032 16.74925,87.81832 16.74925,87.81832 l 25.42898,-2.24892 c -3.55775,-13.41592 -16.20988,-29.21624 -16.24596,-35.40514 -0.0361,-6.1889 20.67715,-13.55603 19.60155,-28.80341 -0.8356,-11.8454 -23.7819,-18.54678 -23.99685,-22.49449 -0.27975,-5.13755 29.77036,-14.39264 29.29222,-27.85908 -0.41772,-11.76483 -28.81466,-10.79442 -27.25261,-22.46257 1.26058,-9.41627 25.98666,-11.70426 25.98666,-11.70426 z"
       id="path1258-9" /><path
       style="fill:url(#linearGradient1345);fill-opacity:1;stroke-width:2.86189;stroke-linecap:round;stroke-linejoin:round"
       d="m 893.32357,526.45844 c 0,0 11.87623,18.71453 22.61825,39.67751 7.12152,13.89761 12.24496,30.00149 14.57849,41.07766 6.36403,30.20712 18.50864,87.83795 18.50864,87.83795 0,0 12.14289,0.96392 14.21516,-3.44973 5.86792,-12.49785 -16.73172,-29.41264 -18.19507,-37.2102 -1.46335,-7.79757 23.62221,-11.07496 19.79952,-26.65834 -3.12679,-12.7465 -26.99257,-10.16027 -27.36367,-21.8206 -0.41753,-13.11955 32.20096,-13.68915 29.16464,-26.45934 -2.87354,-12.0856 -30.4819,0.62142 -35.918,-9.9382 -5.55042,-10.78168 16.75997,-6.99716 17.91278,-14.61705 1.06821,-7.06065 -11.84878,-17.848 -11.84878,-17.848 z"
       id="path1258-8" /></g><g
     id="layer7"
     style="display:inline"><path
       style="display:inline;fill:url(#linearGradient44);fill-opacity:1;stroke-width:3.2;stroke-linecap:round;stroke-linejoin:round"
       d="m 1309.4783,465.04833 -8.6787,31.87612 11.0356,32.35772 -19.599,23.90771 3.8873,29.79395 -30.46,13.12671 -3.8457,44.20208 -19.2067,27.97174 6.0934,1.30838 18.568,-26.81494 5.2218,-41.87823 29.2859,-10.12268 -2.7543,-34.86115 7.1072,-2.81482 20.9513,8.56494 -5.1639,33.86411 13.9342,12.75336 -0.019,-5.72599 -9.2468,-8.03168 6.0201,-35.9071 -25.5107,-10.34871 14.4015,-20.08047 -13.045,-33.09439 11.7195,-29.02545 z"
       id="path43" /><path
       style="display:inline;fill:url(#linearGradient1335);stroke-width:3.2;stroke-linecap:round;stroke-linejoin:round"
       d="m 809.24032,532.55108 c 25.00417,2.79326 102.84933,4.94077 151.81118,8.86522 48.9618,3.92445 100.0994,7.4681 136.54,0.0753 36.4406,-7.3928 54.7568,-0.0571 60.3064,-52.01054 5.5496,-51.95344 106.5372,-34.87415 163.778,-17.66442 57.2408,17.20973 135.3809,-9.01508 193.6927,11.76244 58.3118,20.77752 106.4507,10.14111 161.2333,7.03224 26.4147,-1.49902 55.5128,-11.22008 82.2792,-11.40468 28.7454,-0.19826 54.6476,9.22076 67.0014,9.91562 23.8571,1.34186 59.2695,-10.88806 25.0591,-23.3483 -34.2104,-12.46024 -80.8212,-35.61707 -99.2093,-51.27917 -18.3882,-15.6621 -64.6371,-9.25794 -74.7476,-33.65367 -10.1105,-24.39573 -38.1768,-40.81022 -46.9218,-67.88948 -8.745,-27.07926 -52.3556,-14.67585 -58.2075,-36.15265 -5.8519,-21.4768 -36.7257,-13.0389 -51.3009,-34.8876 -14.5752,-21.8487 -30.568,-31.23026 -27.3481,-64.62249 3.2199,-33.39223 -66.7588,-62.23272 -66.5752,-81.93519 0.1836,-19.70247 -40.2473,-24.727156 -12.7357,-42.934576 27.5116,-18.20742 -14.3127,-49.22705 -24.1399,-84.682645 -9.8272,-35.455599 5.1898,-50.633519 -28.2792,-80.096429 -33.469,-29.46291 -112.8185,-8.23974 -165.842,4.17008 -53.0235,12.40981 -90.9162,-45.90292 -144.4231,-43.96671 -53.50693,1.93621 -65.63449,34.12292 -133.01971,37.26748 -67.38522,3.14455 -189.5561,-52.70063 -265.29888,-22.96999 -75.74278,29.73065 0.73582,71.25094 46.63509,57.86718 45.89927,-13.38376 36.58469,39.486971 21.94569,59.714055 -14.639,20.227083 29.16311,1.203589 7.64668,33.771982 -21.51643,32.568393 -26.7578,45.192837 -24.24116,63.014885 2.51665,17.822048 17.0025,7.872838 18.68219,27.236038 1.42171,16.38922 -18.73959,12.20605 -29.17251,22.16736 -14.815,14.14529 -18.68625,35.97399 -34.96194,51.65673 -27.73726,26.72674 -30.18037,26.05112 -40.53618,53.46964 -10.35581,27.41852 -55.84317,18.33422 -59.34951,38.62227 -3.50634,20.28805 -42.79662,21.05428 -47.43936,59.26209 -4.64274,38.20781 -32.68085,51.15839 -30.56894,97.68483 2.11191,46.52644 39.24311,30.80351 76.96222,33.57306 37.71911,2.76955 101.0151,4.35341 149.04718,-3.52991 48.03208,-7.88332 65.35387,40.12011 78.09788,42.99262 31.30883,7.05704 -2.80073,29.95802 23.60028,32.90733 z"
       id="path1257-4" /><path
       style="display:inline;fill:url(#linearGradient1337);stroke-width:3.2;stroke-linecap:round;stroke-linejoin:round"
       d="m 809.24032,532.55108 c 25.00417,2.79326 102.84933,4.94077 151.81118,8.86522 23.18522,1.85837 46.387,8.47581 68.7564,9.04255 24.8695,0.63009 48.599,-5.07521 67.7836,-8.96725 36.4406,-7.3928 54.7568,-0.0571 60.3064,-52.01054 5.5496,-51.95344 106.5372,-34.87415 163.778,-17.66442 57.2408,17.20973 132.869,-2.21062 191.1808,18.5669 58.3118,20.77752 86.6052,14.75763 163.7452,0.22778 19.7403,-3.71822 -3.9135,-25.95382 -31.43,-35.7793 -27.5165,-9.82548 -95.2716,18.46973 -120.1043,-11.96355 -18.0778,-22.15499 80.6115,-18.39281 71.8833,-48.31739 -8.7282,-29.92458 -229.6498,42.86452 -234.1064,13.02441 -4.4565,-29.8401 46.9632,-9.57829 64.6785,-61.40296 5.9863,-17.51262 105.0778,-42.33457 96.1327,-53.79176 -6.3869,-8.18058 -36.1341,-10.07403 -59.7349,-10.45285 -23.6009,-0.37881 -16.2313,-22.87603 -41.7813,-23.91192 -25.55,-1.03589 -26.5812,20.9558 -52.0573,20.8768 -25.476,-0.079 -60.7044,0.93448 -66.8749,-8.31532 -14.5752,-21.8487 135.7634,-56.65595 137.4412,-84.05216 1.6778,-27.39621 -83.186,-45.82411 -121.2099,-33.44015 -38.024,12.38397 -79.0724,14.18649 -90.8684,2.56155 -30.6436,-30.1993 154.9246,-64.05588 146.0352,-95.822504 -8.8894,-31.766625 -122.9442,-6.193525 -132.7714,-41.64912 -9.8272,-35.455595 153.1114,-101.072126 119.6424,-130.535036 -33.469,-29.46291 -112.8185,-8.23974 -165.842,4.17008 -53.0235,12.40981 -90.9162,-45.90292 -144.4231,-43.96671 -53.50693,1.93621 -65.63449,34.12292 -133.01971,37.26748 -67.38522,3.14455 -189.5561,-52.70063 -265.29888,-22.96999 -75.74278,29.73064 0.73582,71.25094 46.63509,57.86717 45.89927,-13.38376 36.58469,39.486981 21.94569,59.714065 -14.639,20.227083 29.16311,1.203589 7.64668,33.771982 -21.51643,32.568393 -26.7578,45.192837 -24.24116,63.014885 2.51665,17.822048 17.0025,7.872838 18.68219,27.236038 1.42171,16.38922 -18.73959,12.20605 -29.17251,22.16736 -14.815,14.14529 -18.68625,35.97399 -34.96194,51.65673 -27.73726,26.72674 -30.18037,26.05112 -40.53618,53.46964 -10.35581,27.41852 -55.84317,18.33422 -59.34951,38.62227 -3.50634,20.28805 -42.79662,21.05428 -47.43936,59.26209 -4.64274,38.20781 -32.68085,51.15839 -30.56894,97.68483 2.11191,46.52644 39.24311,30.80351 76.96222,33.57306 37.71911,2.76955 101.0151,4.35341 149.04718,-3.52991 48.03208,-7.88332 65.35387,40.12011 78.09788,42.99262 31.30883,7.05704 -2.80073,29.95802 23.60028,32.90733 z"
       id="path1257" /><path
       style="display:inline;fill:url(#linearGradient1339);stroke-width:3.2;stroke-linecap:round;stroke-linejoin:round"
       d="m 809.24032,532.55108 c 25.00417,2.79326 102.2613,7.611 151.22315,11.53545 57.35563,4.59725 170.96993,-19.82354 171.61983,-40.01161 0.6498,-20.18807 -62.0564,-53.82399 -55.42,-69.07244 6.6363,-15.24846 52.7212,-7.63233 79.4155,-17.25543 26.6944,-9.6231 149.6054,-20.03105 150.1546,-35.07997 0.5492,-15.04891 -72.9716,-1.00667 -41.052,-11.8953 60.31,-20.57334 160.8171,-56.05964 152.3075,-66.959 -17.5161,-22.43521 -377.0565,52.54593 -381.6437,35.77676 -4.5872,-16.76917 39.0654,-16.74136 81.9221,-31.35654 30.2966,-10.33188 102.8267,-20.40758 110.9961,-22.82405 8.1693,-2.41647 26.1066,-5.55497 25.5064,-12.88912 -0.6002,-7.33415 -64.7951,-5.18352 -48.762,-10.70935 76.3114,-26.30069 143.245,-56.01111 144.6079,-70.14499 1.4793,-15.34152 -88.0935,-4.26843 -140.8487,3.37132 -52.7552,7.63974 -48.0691,-18.39755 -80.3156,-12.59881 -32.2466,5.79874 -24.7703,27.1458 -68.5899,33.20693 -43.8197,6.06112 -104.82509,13.68312 -109.07492,1.47946 -10.80497,-31.02716 187.24102,-52.01739 231.84372,-62.80336 23.01,-7.15885 -57.0567,-15.2239 -33.1572,-22.29059 84.7394,-25.056 180.4539,-52.64164 192.0394,-63.180073 12.0974,-11.004102 -54.2319,-3.912769 -130.4663,4.077276 -16.8836,1.769548 -23.2477,-13.444507 -48.7159,-10.655951 -25.4682,2.788557 -29.7405,18.481131 -42.6647,19.536494 -57.4942,4.694849 -104.301,5.730211 -107.3129,-5.202854 -8.3772,-30.409336 192.5269,-23.194128 139.413,-52.771841 -53.1138,-29.577714 232.9184,-115.323471 209.2107,-136.193431 -33.469,-29.46291 -112.8185,-8.23974 -165.842,4.17008 -53.0235,12.40981 -90.9162,-45.90292 -144.4231,-43.96671 -53.50693,1.93621 -65.63449,34.12292 -133.01971,37.26748 -67.38522,3.14455 -189.5561,-52.70063 -265.29888,-22.96999 -75.74278,29.73064 0.73582,71.25094 46.63509,57.86717 45.89927,-13.38376 36.58469,39.486981 21.94569,59.714065 -14.639,20.227083 29.16311,1.203589 7.64668,33.771982 -21.51643,32.568393 -26.7578,45.192837 -24.24116,63.014885 2.51665,17.822048 17.0025,7.872838 18.68219,27.236038 1.42171,16.38922 -18.73959,12.20605 -29.17251,22.16736 -14.815,14.14529 -18.68625,35.97399 -34.96194,51.65673 -27.73726,26.72674 -30.18037,26.05112 -40.53618,53.46964 -10.35581,27.41852 -55.84317,18.33422 -59.34951,38.62227 -3.50634,20.28805 -42.79662,21.05428 -47.43936,59.26209 -4.64274,38.20781 -32.68085,51.15839 -30.56894,97.68483 2.11191,46.52644 39.24311,30.80351 76.96222,33.57306 37.71911,2.76955 101.0151,4.35341 149.04718,-3.52991 48.03208,-7.88332 65.35387,40.12011 78.09788,42.99262 31.30883,7.05704 -2.80073,29.95802 23.60028,32.90733 z"
       id="path1257-1" /><path
       style="display:inline;fill:url(#linearGradient1341);stroke-width:3.2;stroke-linecap:round;stroke-linejoin:round"
       d="m 809.24032,532.55108 c 25.00417,2.79326 35.87054,21.18304 144.07056,10.3046 29.24763,-24.71108 125.47962,-12.9364 144.74692,-39.55359 4.9789,-15.6781 -76.08,-36.85774 -68.8453,-77.43734 4.7593,-26.69499 161.9027,-51.15756 241.877,-78.72257 24.0881,-8.30251 35.7872,-14.3216 34.4108,-20.7648 -2.6557,-12.43173 -392.35752,63.1383 -406.93272,41.2896 -14.5752,-21.8487 286.16622,-108.39366 289.38612,-141.78589 3.2199,-33.39223 -337.1549,67.48836 -360.44411,20.35156 -23.28921,-47.1368 317.21621,-124.98486 343.61951,-149.00192 13.9048,-12.648104 -94.7948,10.08002 -149.3809,18.70128 -54.58621,8.62126 -41.18314,-21.189613 -82.04574,-16.247196 -40.86259,4.942416 -32.79646,29.608576 -66.45467,33.700156 -33.6582,4.09159 -57.08706,4.57082 -60.27648,-6.93631 -9.8272,-35.455599 581.97409,-209.34569 548.50509,-238.8086 -33.469,-29.46291 -112.8185,-8.23974 -165.842,4.17008 -53.0235,12.40981 -90.9162,-45.90292 -144.4231,-43.96671 -53.50693,1.93621 -65.63449,34.12292 -133.01971,37.26748 -67.38522,3.14455 -189.5561,-52.70063 -265.29888,-22.96999 -75.74278,29.73064 0.73582,71.25093 46.63509,57.86717 45.89927,-13.38376 36.58469,39.486981 21.94569,59.714065 -14.639,20.227083 29.16311,1.203589 7.64668,33.771982 -21.51643,32.568393 -26.7578,45.192837 -24.24116,63.014885 2.51665,17.822048 17.0025,7.872838 18.68219,27.236038 1.42171,16.38922 -18.73959,12.20605 -29.17251,22.16736 -14.815,14.14529 -18.68625,35.97399 -34.96194,51.65673 -27.73726,26.72674 -30.18037,26.05112 -40.53618,53.46964 -10.35581,27.41852 -55.84317,18.33422 -59.34951,38.62227 -3.50634,20.28805 -42.79662,21.05428 -47.43936,59.26209 -4.64274,38.20781 -32.68085,51.15839 -30.56894,97.68483 2.11191,46.52644 39.24311,30.80351 76.96222,33.57306 37.71911,2.76955 101.0151,4.35341 149.04718,-3.52991 48.03208,-7.88332 65.35387,40.12011 78.09788,42.99262 31.30883,7.05704 -2.80073,29.95802 23.60028,32.90733 z"
       id="path1257-15" /><path
       style="display:inline;fill:url(#linearGradient1343);stroke-width:3.2;stroke-linecap:round;stroke-linejoin:round"
       d="m 899.9275,519.20615 c 38.67629,-7.85836 96.78317,-13.01534 98.21066,-23.38806 2.28144,-16.57794 -106.79328,-27.54303 -104.81459,-44.26236 1.97869,-16.71933 108.94283,-31.30435 91.42674,-53.73956 -17.5161,-22.43521 -317.89705,33.29359 -337.44849,3.0753 -8.7849,-13.57776 45.37666,-28.17831 63.54754,-31.28884 7.56187,-1.29446 78.68704,15.5497 79.1467,0.51472 0.45966,-15.03498 6.9107,-19.31652 15.35815,-20.89926 14.46862,-2.7109 56.40054,-16.96888 57.42921,-27.63681 3.2199,-33.39223 -93.14855,-22.94976 -123.79213,-53.14906 -30.6436,-30.19929 77.09363,-60.50584 79.36793,-81.83352 2.2743,-21.32769 -53.47972,-10.73092 -63.30692,-46.18651 C 745.2251,104.95659 931.64369,10.411519 948.73406,-9.995779 965.82443,-30.403077 961.303,-59.86538 922.5789,-57.97397 c -38.72409,1.89141 -18.85026,-35.30853 -86.23548,-32.16397 -67.38522,3.14455 -107.70793,-77.45178 -183.45071,-47.72114 -75.74278,29.73064 0.73582,71.25093 46.63509,57.86717 45.89927,-13.38376 36.58469,39.486981 21.94569,59.714065 -14.639,20.227083 29.16311,1.203589 7.64668,33.771982 -21.51643,32.568393 -29.44387,45.027427 -26.92723,62.849475 2.51665,17.822048 17.01407,7.498256 18.69376,26.861458 1.42171,16.38922 -17.9389,10.73675 -28.37182,20.69806 -14.815,14.14529 -19.23796,36.15016 -35.51365,51.8329 -27.73726,26.72674 -32.46561,29.9862 -42.82142,57.40472 -10.35581,27.41852 -49.77542,14.13971 -55.72004,32.63616 -5.94462,18.49645 -43.84151,24.93843 -48.48425,63.14624 -2.81254,23.14605 -33.32405,45.44829 -47.08348,53.70273 -12.33584,7.40041 -62.91309,31.07341 -62.08056,49.41442 1.05684,23.28283 38.78959,43.15302 72.7819,43.82639 20.22801,0.40071 65.79113,-15.10481 84.63479,-13.7212 37.71911,2.76955 101.24492,4.58302 149.277,-3.3003 48.03208,-7.88332 63.97136,37.43399 76.71537,40.3065 29.33499,6.61214 1.39324,29.24789 19.45012,34.23503 30.17582,7.43072 66.40176,-8.11453 96.25684,-14.18057 z"
       id="path1257-15-6" /></g><g
     id="layer5"
     style="display:inline"><path
       style="display:inline;fill:url(#linearGradient1333);fill-opacity:1;stroke-width:4.07079;stroke-linecap:round;stroke-linejoin:round"
       d="M 0,1046 V 729.0548 c 0,0 57.902743,-32.71379 121.77429,-29.24681 373.77377,20.28861 570.24241,-47.46604 938.49261,-41.54842 368.2501,5.91762 326.0547,35.96413 648.0873,54.42215 C 1887.7175,722.96233 1920,898.94722 1920,898.94722 V 1046 Z"
       id="path5" /><path
       style="display:inline;fill:url(#linearGradient1331);fill-opacity:1;stroke-width:4.07079;stroke-linecap:round;stroke-linejoin:round"
       d="M 0,1046 V 735.0548 c 0,0 57.902743,-32.71379 121.77429,-29.24681 137.20623,7.44762 250.17707,1.35713 356.86689,-6.92378 24.14898,-1.87436 48.30202,-2.27248 71.97245,-4.45008 17.11351,-1.57438 36.01114,0.25926 53.05485,-1.39008 18.11896,-1.7534 61.56247,2.10874 79.779,0.35236 12.55781,-1.21078 -2.01768,-11.51338 10.65948,-12.69176 29.72945,-2.76345 59.869,-5.39986 90.80281,-7.73128 33.19565,-2.50189 207.51692,21.68541 243.01663,20.10589 39.8378,-1.77255 -58.78557,-29.1638 -14.7774,-29.18703 15.4,-0.008 31.0964,0.10988 47.1179,0.36734 43.5136,0.69924 81.6022,-0.64927 114.6652,1.01702 31.9266,1.60901 59.1276,6.22032 84.196,7.63618 22.7933,1.28735 44.3071,0.0551 62.9695,1.9329 119.4417,12.0183 172.4304,31.58012 386.2566,43.83605 C 1887.7175,728.96233 1920,904.94722 1920,904.94722 V 1046 Z"
       id="path5-6" /><path
       style="display:inline;fill:url(#linearGradient1329);fill-opacity:1;stroke-width:4.07079;stroke-linecap:round;stroke-linejoin:round"
       d="M 0,1046 V 741.0548 c 0,0 57.902743,-32.71379 121.77429,-29.24681 137.74717,7.47698 250.92872,0.85895 357.987,-7.48508 24.72868,-1.92733 49.58971,-1.92337 73.82858,-4.1632 15.92677,-1.47174 39.04797,2.40686 54.91731,0.87157 15.68166,-1.51714 97.17381,11.39381 112.91798,9.86955 10.13166,-0.98089 -14.24074,-16.91784 -4.04307,-17.88309 62.74732,-5.9393 336.36181,30.21746 405.86241,26.84084 57.3887,-2.78818 -129.52621,-50.66842 -62.9776,-49.59901 79.8515,1.28318 144.987,3.26329 194.1388,6.45137 25.8774,1.67846 47.8052,2.53771 68.3488,4.60597 120.3868,12.12018 170.1607,31.01644 385.5997,43.36481 C 1887.7175,734.96233 1920,910.94722 1920,910.94722 V 1046 Z"
       id="path5-6-2" /></g><g
     id="layer4"
     style="display:inline"><path
       style="display:inline;fill:url(#linearGradient1327);fill-opacity:1;stroke-width:3.2;stroke-linecap:round;stroke-linejoin:round"
       d="M 0,1046 V 653.92503 c 0,0 478.62678,59.90183 686.62559,76.973 207.9988,17.07117 554.84731,19.42096 554.84731,19.42096 L 1920,761.60176 V 1046 Z"
       id="path4" /><path
       style="display:inline;fill:url(#linearGradient1325);fill-opacity:1;stroke-width:3.2;stroke-linecap:round;stroke-linejoin:round"
       d="M 0,1046 V 661.92503 c 0,0 35.730413,1.65436 91.570187,7.96681 21.195953,2.39611 45.017773,7.07113 71.280443,10.22708 7.37559,0.88631 15.13537,3.5295 22.82497,4.44921 43.62371,5.2176 91.35538,9.44999 141.14282,15.20192 53.95355,6.23324 110.19064,10.54374 163.31237,16.57859 74.90349,8.50934 144.12731,18.25141 196.4948,22.54939 46.78734,3.83999 101.98191,4.6137 157.29233,7.10475 190.57878,8.58323 397.55498,12.31621 397.55498,12.31621 L 1920,769.60176 V 1046 Z"
       id="path4-9" /><path
       style="display:inline;fill:url(#linearGradient1323);fill-opacity:1;stroke-width:3.2;stroke-linecap:round;stroke-linejoin:round"
       d="M 0,1046 V 669.92503 c 0,0 42.185483,22.96965 121.77429,35.88296 26.06462,4.22899 56.33388,1.02238 88.99294,3.31269 54.28971,3.80721 114.83093,12.35214 171.05263,18.72958 39.10287,4.43558 77.15405,2.80251 115.30176,4.95637 71.50702,4.03736 139.63508,9.99849 189.50397,14.0914 23.9177,1.96301 53.96555,11.60189 80.81667,13.1944 41.51799,2.46238 86.17389,10.6942 129.93259,11.8776 174.05255,4.70703 344.09805,-5.65104 344.09805,-5.65104 L 1920,777.60176 V 1046 Z"
       id="path4-9-3" /></g><g
     id="layer3"
     style="display:inline"><path
       style="display:inline;fill:url(#linearGradient1321);fill-opacity:1;stroke-width:3.2;stroke-linecap:round;stroke-linejoin:round"
       d="M 0,1046 V 907.49175 c 0,0 730.68972,-117.18279 1012.8514,-150.24668 140.1149,-16.41875 254.9998,-36.43739 350.238,-54.40848 138.9399,-26.21745 236.0656,-48.07713 308.7119,-48.04428 C 1833.3901,654.86537 1920,697.89444 1920,697.89444 V 1046 Z"
       id="path3" /><path
       style="display:inline;fill:url(#linearGradient1319);fill-opacity:1;stroke-width:3.2;stroke-linecap:round;stroke-linejoin:round"
       d="M 0,1046 V 919.49175 c 0,0 730.68972,-117.18279 1012.8514,-150.24668 109.9735,-12.88676 206.9807,-19.27665 288.5686,-33.86812 16.7832,-3.00157 35.1905,-0.23962 50.9103,-3.17401 7.4516,-1.39097 23.59,-5.85194 30.8105,-7.21995 47.1555,-8.93428 95.9708,-7.76359 131.9304,-16.70209 19.6048,-4.87319 44.4833,-0.0523 60.6229,-5.47633 39.3063,-13.20978 63.0595,-36.0272 96.1072,-36.01226 53.3361,0.0241 76.8689,-3.64833 113.4491,2.64364 10.4,1.78885 44.3644,7.50831 53.3666,9.4828 11.8952,2.60902 32.2812,9.64177 41.6969,12.28691 34.3283,9.64386 39.6861,18.68878 39.6861,18.68878 V 1046 Z"
       id="path3-2" /><path
       style="display:inline;fill:url(#linearGradient1317);fill-opacity:1;stroke-width:3.2;stroke-linecap:round;stroke-linejoin:round"
       d="M 0,1046 V 931.49175 c 0,0 730.68972,-117.18279 1012.8514,-150.24668 37.0588,-4.34258 72.3527,-8.93698 105.985,-13.67873 97.9874,-13.81505 160.2566,33.59351 232.5892,19.86125 13.4284,-2.54936 126.8906,0.45441 139.7356,-0.52025 18.5149,-1.40488 31.7111,-3.99629 40.9967,-7.30558 41.2206,-14.69045 5.3796,-43.52745 15.665,-45.51364 93.5345,-18.06215 67.7752,-55.32122 123.9784,-55.29581 88.4101,0.04 153.5873,11.76595 195.2024,23.44081 34.4455,9.6635 52.9963,19.66132 52.9963,19.66132 V 1046 Z"
       id="path3-2-6" /></g><g
     id="layer2"
     style="display:inline"><g
       id="g39"
       transform="matrix(0.73192499,0,0,0.73192499,1293.4433,236.62527)"
       style="display:inline"><path
         id="path25"
         style="display:inline;fill:url(#linearGradient37);fill-opacity:1;stroke-width:2.50481;stroke-linecap:round;stroke-linejoin:round"
         d="m 603.45541,453.04749 a 55.61742,43.751518 0 0 0 -34.69532,9.61914 39.693016,41.291256 0 0 0 -21.29492,-6.45898 39.693016,41.291256 0 0 0 -34.94531,21.92578 59.131397,52.777477 0 0 0 -11.1875,-0.95508 59.131397,52.777477 0 0 0 -59.13281,52.77734 59.131397,52.777477 0 0 0 22.20117,41.08594 70.310081,63.687798 0 0 0 -1.36719,11.77344 70.310081,63.687798 0 0 0 39.45313,57.11719 67.615356,61.615211 0 0 0 -0.46875,5.95117 67.615356,61.615211 0 0 0 67.61523,61.61523 67.615356,61.615211 0 0 0 66.92773,-52.84961 64.562592,47.401566 0 0 0 57.95508,-47.08398 64.562592,47.401566 0 0 0 -3.58008,-15.53711 50.439362,38.991444 0 0 0 29.2168,-35.29102 50.439362,38.991444 0 0 0 -33.25,-36.64453 41.644722,39.295578 0 0 0 -30.69726,-37.15625 55.61742,43.751518 0 0 0 -52.75,-29.88867 z" /><path
         style="fill:url(#linearGradient34);fill-opacity:1;stroke-width:3.2;stroke-linecap:round;stroke-linejoin:round"
         d="m 617.37483,848.09543 0.71315,-16.17183 -3.34944,-29.74656 4.29668,-29.33268 -12.70635,-28.22501 -10.03898,-27.08421 -15.1952,-12.05137 -13.44487,-22.06869 -0.7071,-21.43387 -13.27932,-18.31486 -17.8743,-16.32438 -4.01683,-23.17768 -16.02298,-20.78788 -18.09872,-18.59595 -0.52136,-18.92505 10.79271,-1.72207 -2.82567,15.06549 16.68399,14.51912 11.1977,10.26389 5.60437,16.56597 9.03132,-4.78674 2.7649,-12.6315 -4.64056,-18.41814 11.40676,0.41615 4.93387,18.61945 -4.61847,15.54308 -3.23083,13.31149 -1.36743,14.2991 12.74466,13.72007 8.95623,13.74586 3.8518,16.46066 9.10935,15.15662 10.52822,6.00216 12.24162,-5.58042 0.10306,-12.57203 -2.84137,-16.40692 9.59048,-7.19076 3.90203,-11.62421 7.65336,-19.46421 -4.46516,-11.57256 -5.24478,-12.36647 -9.11609,-10.33181 7.70118,-3.98613 15.5529,14.90501 0.70711,18.21166 h 7.55254 l 1.80229,-19.59703 -3.5811,-8.32555 14.41213,-0.70711 -4.29426,28.80179 -2.46555,9.07761 -10.19867,4.24264 -4.90158,20.68192 -6.79883,7.84063 -4.88777,9.133 5.50511,21.14669 -8.03367,11.34211 -7.25993,13.35734 3.44904,13.75087 13.24237,26.3405 8.91618,16.14874 -1.58616,20.06023 -4.25179,16.99805 5.72177,24.69928 -0.69658,17.727 z"
         id="path24" /><path
         id="path25-6"
         style="display:inline;fill:url(#linearGradient39);fill-opacity:1;stroke-width:2.50481;stroke-linecap:round;stroke-linejoin:round"
         d="m 603.45541,453.04749 c -12.61732,0.0177 -24.85203,3.40973 -34.69532,9.61914 -6.36403,-4.2144 -13.7508,-6.45489 -21.29492,-6.45898 -14.64472,0.0428 -28.07701,8.47068 -34.94531,21.92578 -3.68674,-0.63466 -7.43282,-0.95446 -11.1875,-0.95508 -32.65786,-7e-4 -59.13273,23.62871 -59.13281,52.77734 0.0451,15.98995 8.20967,31.09951 22.20117,41.08594 -0.85829,3.87752 -1.31599,7.81902 -1.36719,11.77344 0.0462,24.29732 15.35056,46.45386 39.45313,57.11719 -0.26162,1.97566 -10.85967,-54.79225 19.26343,-55.99026 30.1231,-1.198 6.63191,-14.91218 43.9748,-14.91211 33.627,4e-5 11.81169,34.04843 39.45578,19.86956 27.64409,-14.17886 34.49308,6.08132 49.72573,6.07715 15.23265,-0.004 13.27464,-35.33394 23.10017,-42.58152 9.82553,-7.24757 42.10534,19.49483 42.1461,4.34186 -0.007,-16.4059 -13.29773,-31.05352 -33.25,-36.64453 -0.35723,-17.44196 -12.85845,-32.57355 -30.69726,-37.15625 -7.58083,-17.8511 -28.82471,-29.8881 -52.75,-29.88867 z" /></g><path
       style="display:inline;fill:url(#linearGradient1315);fill-opacity:1;stroke-width:3.2;stroke-linecap:round;stroke-linejoin:round"
       d="m 0,776.05921 c 0,0 378.0781,-36.35958 837.48572,15.15621 209.50648,23.49307 452.60898,42.15701 517.39578,45.62296 67.0846,3.58888 115.9432,7.24659 181.4396,6.1507 118.5464,-1.98352 245.4707,-20.01727 311.6355,-17.73905 C 1920,827.73066 1920,827.48069 1920,827.48069 V 1046 H 0 Z"
       id="path2" /><path
       style="display:inline;fill:url(#linearGradient1313);fill-opacity:1;stroke-width:3.2;stroke-linecap:round;stroke-linejoin:round"
       d="m 0,792.05921 c 0,0 48.909614,7.60973 122.04978,4.12914 10.70991,-0.50966 15.25549,-12.66366 27.26279,-13.13456 51.8749,-2.03441 115.53482,-3.57193 188.19015,-3.44466 71.65191,0.12551 152.0525,1.87014 238.52614,6.35404 35.71666,1.85201 77.14374,-1.89179 114.74398,0.97378 49.1544,3.74613 95.08286,14.48893 146.71288,20.27847 63.43759,7.11359 129.95544,13.78442 193.67048,19.72464 15.1979,1.41692 29.7651,11.44191 44.5642,12.77179 51.1522,4.5966 98.1123,-2.30856 140.3398,-0.61751 63.4888,2.54248 114.5045,12.44314 138.8213,13.74404 67.0846,3.58888 115.9432,7.24659 181.4396,6.1507 59.3719,-0.99341 123.3724,-12.4772 178.2618,-16.95446 54.7069,-4.46237 100.3464,-1.9218 133.3737,-0.78459 C 1920,843.73066 1920,843.48069 1920,843.48069 V 1046 H 0 Z"
       id="path2-2" /><path
       style="display:inline;fill:url(#linearGradient1311);fill-opacity:1;stroke-width:3.2;stroke-linecap:round;stroke-linejoin:round"
       d="m 0,808.05921 c 0,0 69.262111,21.56093 157.39613,17.90084 33.07159,-1.37342 53.56824,-29.08126 96.15798,-29.75942 23.32922,-0.37147 48.32608,7.77709 73.77107,12.15407 28.19131,4.84939 195.86456,42.99922 227.67079,43.59122 42.56864,0.79232 137.53016,-2.19439 184.33549,0 88.99775,4.17251 100.46152,12.3672 200.15034,23.54583 209.5065,23.49306 350.6129,-10.11932 415.3997,-6.65337 67.0846,3.58888 115.9432,7.24659 181.4396,6.1507 118.5464,-1.98352 245.4707,-20.01727 311.6355,-17.73905 C 1920,859.73066 1920,859.48069 1920,859.48069 V 1046 H 0 Z"
       id="path2-2-5" /></g><g
     id="layer1"
     style="display:inline"><g
       id="g23"
       style="display:inline"><path
         id="path8"
         style="fill:url(#linearGradient21);fill-opacity:1;stroke-width:3.29797;stroke-linecap:round;stroke-linejoin:round"
         d="m 203.86895,476.6506 a 80.661957,70.990395 0 0 0 -68.30468,33.33203 55.761036,47.423874 0 0 0 -6.63086,-0.35156 55.761036,47.423874 0 0 0 -55.75977,47.42578 55.761036,47.423874 0 0 0 3.77734,16.82422 73.119629,57.447021 0 0 0 -21.093746,40.33203 73.119629,57.447021 0 0 0 9.749996,28.64844 61.025864,54.694248 0 0 0 -28.880855,46.42773 61.025864,54.694248 0 0 0 61.025395,54.69531 61.025864,54.694248 0 0 0 38.51562,-12.38867 67.542595,61.423149 0 0 0 46.72266,17.26953 67.542595,61.423149 0 0 0 66.4375,-50.9375 75.328079,65.461693 0 0 0 36.64843,-44.11523 44.071003,32.011978 0 0 0 38.05079,-31.69922 44.071003,32.011978 0 0 0 -4.58008,-14.20703 61.580849,60.433643 0 0 0 28.75976,-51.0918 61.580849,60.433643 0 0 0 -61.58203,-60.43359 61.580849,60.433643 0 0 0 -22.38867,4.29297 80.661957,70.990395 0 0 0 -60.4668,-24.02344 z" /><path
         style="display:inline;fill:url(#linearGradient24);fill-opacity:1;stroke-width:3.2;stroke-linecap:round;stroke-linejoin:round"
         d="m 126.85966,903.06129 18.55102,1.33441 2.98708,-75.92359 9.84166,-55.08735 31.67134,-53.42741 6.32477,-37.91043 6.88014,-26.95759 19.28609,-21.46857 30.34448,-7.45021 28.75367,-21.5799 23.54997,-46.45569 -7.58362,-0.70711 -28.62367,48.38746 -29.04973,10.5748 -29.72282,14.75664 -14.25642,15.45638 -7.30102,-11.77147 2.59796,-25.67552 12.80716,-17.42274 20.51387,-18.28113 12.88208,-29.22064 -13.14379,2.13424 -8.13639,19.79613 -17.16599,16.37287 -10.68687,11.59102 -6.0313,20.60646 -2.69464,16.86157 4.96684,12.29742 2.13427,12.76162 -6.02905,23.04101 -18.11996,31.02923 -10.05296,30.391 -8.60855,13.09189 -9.45237,-15.65081 -8.71626,-17.68581 3.48253,-23.04028 0.71591,-20.58808 6.91501,-13.52134 7.52026,-18.24985 0.22494,-12.69493 h -5.54257 l -4.70288,15.55952 -3.73924,13.36059 -7.3951,7.49523 -4.20587,13.07798 -5.04194,-1.44235 -1.44028,-14.52369 -9.01372,-12.90697 -8.86386,-13.21398 -7.03292,5.46637 10.34403,10.51075 6.62291,14.7465 -1.30925,8.6725 7.35781,11.27717 6.22051,10.37653 -2.34575,18.53035 1.28543,12.65443 5.53601,10.80308 10.23078,11.23654 3.18094,11.33456 -0.72644,14.86499 0.76701,26.5184 -3.32405,21.93486 -0.2902,21.37323 -2.38752,17.70952 0.58056,21.57574 z"
         id="path7" /><path
         id="path10-4"
         style="display:inline;fill:url(#linearGradient16);fill-opacity:1;stroke-width:3.29797;stroke-linecap:round;stroke-linejoin:round"
         d="m 203.86895,476.6506 c -27.76961,0.022 -53.57371,12.61419 -68.30468,33.33203 -2.20011,-0.22917 -4.41432,-0.34656 -6.63086,-0.35156 -30.79635,5.9e-4 -55.76101,21.23397 -55.75977,47.42578 0.048,5.75658 1.32801,11.45761 3.77734,16.82422 -13.50457,10.74358 -21.082306,25.23249 -21.093746,40.33204 -1.68e-4,31.72705 26.654736,36.26731 67.037526,36.26752 38.2094,-0.0626 11.97581,-20.80686 38.14091,-30.90924 26.1651,-10.10238 23.09294,10.19665 45.32547,-0.14247 22.23252,-10.33912 17.47557,-26.61459 32.23964,-33.97981 14.76407,-7.36521 28.65664,10.05206 43.13852,9.74334 14.48188,-0.30875 66.56712,-5.00077 66.56715,-38.37778 -3e-5,-33.37701 -27.57143,-60.43423 -61.58203,-60.4336 -7.6702,0.0501 -15.26334,1.50611 -22.38867,4.29297 -15.30779,-15.26971 -37.32913,-24.01879 -60.4668,-24.02344 z" /></g><path
       style="display:inline;fill:url(#linearGradient1309);fill-opacity:1;stroke-width:3.2;stroke-linecap:round;stroke-linejoin:round"
       d="M 1.2138899e-6,909.49175 30.085465,911.77152 c 27.527124,2.04846 55.059836,4.02148 82.596185,5.94191 92.26489,6.43472 184.57094,12.28186 276.91276,17.49751 l 1.1e-4,10e-6 c 116.44636,6.57712 232.95205,12.18542 349.5207,16.0279 l 10e-5,1e-5 c 57.77109,1.90432 115.55812,3.36832 173.35589,4.10489 52.38123,0.66755 104.77439,0.7676 157.14919,-0.29204 l 10e-5,-10e-6 c 151.0985,-3.057 302.0264,-12.16863 452.6102,-24.99865 49.6358,-4.22906 99.2457,-8.8286 148.9537,-12.10216 0,-10e-6 10e-5,-10e-6 2e-4,-2e-5 38.0045,-2.50281 76.1227,-4.29919 114.174,-2.6541 39.2232,1.69576 78.4878,3.1166 117.5717,6.82971 0,10e-6 10e-5,10e-6 10e-5,10e-6 4.9757,0.47271 9.9713,0.88434 14.8751,1.85086 0,10e-6 0,2e-5 10e-5,2e-5 0.6434,0.12683 1.2947,0.24401 1.9045,0.48531 L 1920,924.63582 1920,1080 h -10e-5 H 0 V 909.49175"
       id="path1"
       transform="translate(0,-34)" /><path
       style="display:inline;fill:url(#linearGradient1307);fill-opacity:1;stroke-width:3.2;stroke-linecap:round;stroke-linejoin:round"
       d="m 3.1672116e-6,909.49175 0.012380132788,7e-4 0.03630533,0.002 c 0.04801849,0.003 0.09603697,0.005 0.14405546,0.008 0.19052454,0.0108 0.38104956,0.0216 0.57157482,0.0324 3.568e-5,0 7.136e-5,0 1.0703e-4,1e-5 0.75278856,0.0426 1.50558096,0.0851 2.25837526,0.12766 h 0 c 2.9432734,0.1662 5.8865773,0.33186 8.8298978,0.49722 h 0 l 2.14e-4,10e-6 h 0 c 11.242166,0.6316 22.484577,1.25882 33.727136,1.88339 7.1e-5,0 1.42e-4,0 2.14e-4,1e-5 40.744679,2.26351 81.491307,4.49193 122.239367,6.69366 l 1.1e-4,10e-6 c 129.23396,6.98287 258.48214,13.70497 387.7483,20.06386 36.90051,1.81522 73.66647,5.66211 110.43336,9.28686 l 1.1e-4,10e-6 c 36.87698,3.6356 73.80837,7.06109 110.85133,8.03508 3.39871,0.0894 6.78608,0.42841 10.16492,0.8061 4.77811,0.5341 9.54134,1.19441 14.29744,1.89806 3e-5,10e-6 7e-5,10e-6 10e-5,2e-5 12.91021,1.91003 25.77028,4.14448 38.61689,6.44365 4e-5,0 7e-5,10e-6 1.1e-4,2e-5 33.62654,6.01816 67.15272,12.58207 100.69019,19.07828 33.40002,6.46959 66.79051,12.99902 100.28621,18.95374 l 0,0 c 12.6774,2.2537 25.3687,4.4416 38.1119,6.2879 4.6465,0.6732 9.3003,1.302 13.9693,1.7968 0,0 0,0 10e-5,0 3.2529,0.3448 6.5149,0.653 9.7858,0.6893 1e-4,0 1e-4,0 2e-4,0 2.6682,0.03 5.3557,-0.03 7.9728,-0.5513 0.8571,-0.1705 1.7074,-0.3946 2.5098,-0.7409 0,0 0,0 1e-4,0 0.5881,-0.2539 1.1554,-0.5762 1.6149,-1.0226 0,0 0,0 0,0 0.3642,-0.3539 0.6499,-0.7944 0.7877,-1.2831 0.1389,-0.4931 0.1289,-1.0199 0.027,-1.5221 0,0 0,-10e-5 0,-10e-5 -0.2772,-1.3721 -1.0956,-2.5726 -1.9566,-3.6763 -1.2437,-1.5944 -2.6952,-3.0153 -4.1901,-4.37685 -1.8888,-1.72032 -3.8715,-3.3349 -5.8855,-4.90671 -4.7825,-3.73237 -9.746,-7.22567 -14.7046,-10.72068 -5.0413,-3.55336 -10.1041,-7.07913 -15.0284,-10.79302 -2.1383,-1.6127 -4.251,-3.26101 -6.2903,-4.99715 -1.6637,-1.41632 -3.2886,-2.88528 -4.7568,-4.50334 0,-3e-5 0,-6e-5 -1e-4,-8e-5 -1.0539,-1.16156 -2.0704,-2.39619 -2.6852,-3.83912 -0.2188,-0.51357 -0.3795,-1.05917 -0.3976,-1.61712 0,-4e-5 0,-8e-5 0,-1.1e-4 -0.016,-0.48037 0.088,-0.96706 0.3221,-1.38697 0.2599,-0.46682 0.6626,-0.8421 1.109,-1.13569 0.5994,-0.39417 1.2759,-0.658 1.9633,-0.863 2.1809,-0.65035 4.4831,-0.77654 6.7584,-0.82257 39.9718,-0.8087 79.9321,-2.10213 119.8895,-3.44374 l 10e-5,-10e-6 c 36.4085,-1.22246 72.816,-2.51363 109.2363,-3.3078 30.1048,-0.65645 60.2295,-1.06499 90.325,-0.0697 11.8472,0.3918 23.6915,1.00777 35.49,2.14886 9.286,0.89808 18.5611,2.08476 27.6653,4.12169 6.0059,1.34371 12.1127,2.18737 18.2212,2.93716 7.7184,0.9474 15.4658,1.65467 23.2252,2.16749 10e-5,0 10e-5,0 10e-5,0 7.6405,0.50495 15.2959,0.83086 22.953,0.802 5.8208,-0.0219 11.6771,-0.11874 17.4041,-1.15933 5.4075,-0.98254 10.6463,-2.93735 15.3031,-5.85641 3.9272,-2.46167 7.4156,-5.55173 10.8508,-8.66332 10e-5,-5e-5 10e-5,-10e-5 2e-4,-1.4e-4 3.3254,-3.01223 6.6765,-6.03785 10.4858,-8.40895 0,-2e-5 0,-4e-5 0,-6e-5 4.3044,-2.67928 9.1867,-4.39789 14.2088,-5.09388 66.3356,-9.19311 133.2467,-17.08761 200.1538,-14.19498 0,0 10e-5,0 10e-5,0 16.395,0.70881 32.8159,0.50072 49.2193,0.0242 11.9869,-0.34819 23.9948,-1.01372 35.9629,-0.25793 14.7523,0.93161 29.8187,1.3305 43.8496,5.98158 h 0 c 1.8018,0.59727 3.7052,1.19886 5.0538,2.53463 l 0,0 10e-5,7e-5 c 0.2222,0.22008 0.4296,0.46977 0.5237,0.76802 v 0 l 0,1.1e-4 v 0 c 0.022,0.0684 0.036,0.13931 0.038,0.21099 v 0 c 0,4e-5 0,7e-5 0,1.1e-4 3e-4,0.0187 -2e-4,0.0374 -0,0.056 0,7e-5 0,1.4e-4 -10e-5,2.1e-4 -8e-4,0.007 -0,0.0143 -0,0.0212 l 0,139.36386 v 2e-4 h 0 H 0 L 0,909.49175"
       id="path1-9"
       transform="translate(0,-18)" /><path
       style="display:inline;fill:url(#linearGradient1305);fill-opacity:1;stroke-width:3.2;stroke-linecap:round;stroke-linejoin:round"
       d="M 1.789482e-5,909.49176 0.02968836,909.505 c 0.02853109,0.0127 0.05708516,0.0254 0.0856511,0.038 0.11190855,0.0494 0.22399897,0.0985 0.33618455,0.14729 0.43561007,0.18955 0.87265629,0.37578 1.31048159,0.56015 h 0 c 1.6576395,0.69803 3.3264832,1.36928 5.0018774,2.02355 l 2.003e-4,8e-5 h 0 c 5.9779217,2.33449 12.0399067,4.45186 18.1579297,6.38969 h 0 c 18.847012,5.96963 38.267134,10.30166 57.965483,11.98136 7.1e-5,10e-6 1.43e-4,10e-6 2.14e-4,2e-5 4.334217,0.36957 8.690713,0.39878 13.040359,0.34781 7.2e-5,0 1.44e-4,0 2.15e-4,0 5.503806,-0.0645 11.004486,-0.29334 16.501636,-0.57138 13.05003,-0.66008 26.08396,-1.6036 39.12763,-2.37929 7e-5,-10e-6 1.4e-4,-10e-6 2.1e-4,-2e-5 4e-5,0 7e-5,0 1.1e-4,0 13.38652,-0.79608 26.78702,-1.48025 40.19719,-1.49282 5.94998,-0.006 11.90267,0.1227 17.83824,0.5367 7e-5,0 1.4e-4,1e-5 2.1e-4,1e-5 5.00244,0.34892 10.0016,0.88392 14.91234,1.89917 2.81642,0.58227 5.61424,1.2876 8.31116,2.28653 1.89735,0.70278 3.75792,1.5478 5.40843,2.71812 1.1712,0.83046 2.23758,1.84363 2.95753,3.08582 0.59499,1.02661 0.92155,2.20366 0.95844,3.38965 0.0383,1.23117 -0.20801,2.45804 -0.58876,3.62948 -2e-5,3e-5 -3e-5,7e-5 -4e-5,1e-4 -0.42938,1.32103 -1.0266,2.58212 -1.68422,3.80565 -1.46084,2.71793 -3.21951,5.26264 -4.84742,7.88393 -1.53498,2.47163 -3.04028,5.01498 -3.8072,7.82158 -0.33108,1.21162 -0.50383,2.47739 -0.38394,3.7277 0,4e-5 0,7e-5 1e-5,1.1e-4 0.11983,1.24957 0.55111,2.46523 1.23146,3.52018 4e-5,6e-5 8e-5,1.2e-4 1.2e-4,1.8e-4 0.842,1.30554 2.02016,2.36726 3.29895,3.24936 1.78981,1.23459 3.78365,2.14722 5.81814,2.91435 6.71733,2.53289 13.88004,3.65742 21.00104,4.56819 4e-5,0 7e-5,10e-6 1.1e-4,10e-6 8.55465,1.09413 17.19289,1.38429 25.81656,1.4919 11.1503,0.13914 22.30232,-0.12565 33.44589,-0.53721 26.75441,-0.98811 53.46928,-2.83349 80.17682,-4.69944 27.28876,-1.90655 54.57028,-3.94321 81.88518,-5.4289 11.85327,-0.64472 23.71346,-1.18709 35.58135,-1.44905 4e-5,0 7e-5,0 1.1e-4,-10e-6 9.60192,-0.21194 19.21402,-0.27275 28.80587,0.21533 7e-5,0 1.4e-4,10e-6 2.1e-4,10e-6 38.13658,1.9406 75.8945,8.38369 113.33236,15.90503 l 1.1e-4,2e-5 c 36.54645,7.34224 73.12628,14.91959 110.22909,18.51589 52.23748,5.0633 103.86991,14.9178 155.59628,23.7933 24.12145,4.1389 48.2934,8.049 72.60836,10.8342 22.78655,2.6102 45.72065,4.2366 68.65155,3.7727 10e-5,0 10e-5,0 2e-4,0 42.9019,-0.868 85.7633,-4.2941 128.2021,-10.6408 l 10e-5,0 c 34.2241,-5.1182 68.1317,-12.199 101.7709,-20.3165 28.9624,-6.9889 57.742,-14.73266 86.7806,-21.39809 0,-10e-6 0,-2e-5 10e-5,-3e-5 27.4376,-6.29796 55.1818,-11.49607 83.2313,-13.88594 0,0 10e-5,-10e-6 10e-5,-10e-6 1.7091,-0.14561 3.426,-0.17565 5.1412,-0.1805 10e-5,0 10e-5,0 10e-5,0 2.3153,-0.007 4.6304,0.0486 6.9445,0.12538 6.1065,0.2026 12.2069,0.5548 18.3059,0.91935 15.7771,0.94303 31.5468,2.02139 47.3344,2.76956 16.1223,0.76404 32.2738,1.31006 48.4024,0.68981 6.5693,-0.25264 13.1414,-0.69206 19.6409,-1.68035 4.7722,-0.72564 9.5793,-1.6565 13.9549,-3.6947 0,-2e-5 10e-5,-3e-5 10e-5,-5e-5 2.5844,-1.20383 5.0824,-2.88999 6.4664,-5.38252 1.1082,-1.99585 1.3057,-4.40299 0.8947,-6.64858 -0.4802,-2.62408 -1.6194,-5.08392 -2.9105,-7.41831 -1.4763,-2.66917 -3.1966,-5.19519 -4.9492,-7.69163 0,-3e-5 0,-6e-5 -10e-5,-9e-5 -1.7454,-2.48627 -3.5427,-4.93704 -5.2214,-7.46884 -1.423,-2.14607 -2.8038,-4.34587 -3.7272,-6.74958 0,-3e-5 0,-6e-5 0,-10e-5 -0.365,-0.95009 -0.6527,-1.93705 -0.7512,-2.95005 0,-7e-5 0,-1.5e-4 0,-2.2e-4 -0.085,-0.86984 -0.017,-1.7637 0.2848,-2.58383 0,-3e-5 0,-7e-5 0,-1e-4 0.3087,-0.83842 0.8631,-1.57505 1.5417,-2.15621 0.8777,-0.75169 1.9339,-1.26951 3.0193,-1.66623 28.0645,-10.25801 58.1712,-14.02632 88.0512,-14.20944 13.3335,-0.0817 26.6626,0.51941 39.9703,1.3543 0,0 0,10e-6 10e-5,10e-6 11.5568,0.72505 23.1018,1.66091 34.6705,2.16106 15.8872,0.68685 31.8025,-0.0307 47.6618,-1.19485 h 0 c 11.6827,-0.85759 23.3946,-2.19015 35.086,-1.46082 0,10e-6 1e-4,10e-6 1e-4,10e-6 l 0,0 c 15.4431,0.96338 31.3562,1.41648 45.7008,7.21725 h 0 l 10e-5,4e-5 0,0 c 2.0048,0.8107 4.0807,1.71383 5.4929,3.35149 10e-5,5e-5 10e-5,1.1e-4 2e-4,1.6e-4 0.2656,0.30809 0.5038,0.64939 0.6311,1.03578 l 0,0 c 0.031,0.093 0.055,0.18866 0.065,0.28607 l 0,0 c 0,0.0253 0,0.0507 0,0.0761 0,0.009 0,0.0188 -9e-4,0.028 l 0,153.36384 -2e-4,0 L 0,1078 V 909.49175"
       id="path1-9-2"
       transform="translate(0,2)" /></g><metadata
     id="metadata1"><rdf:RDF><cc:Work
         rdf:about=""><cc:license
           rdf:resource="http://creativecommons.org/licenses/by-sa/4.0/" /><dc:title>Blue Fury</dc:title><dc:creator><cc:Agent><dc:title>Jagger Harris</dc:title></cc:Agent></dc:creator></cc:Work><cc:License
         rdf:about="http://creativecommons.org/licenses/by-sa/4.0/"><cc:permits
           rdf:resource="http://creativecommons.org/ns#Reproduction" /><cc:permits
           rdf:resource="http://creativecommons.org/ns#Distribution" /><cc:requires
           rdf:resource="http://creativecommons.org/ns#Notice" /><cc:requires
           rdf:resource="http://creativecommons.org/ns#Attribution" /><cc:permits
           rdf:resource="http://creativecommons.org/ns#DerivativeWorks" /><cc:requires
           rdf:resource="http://creativecommons.org/ns#ShareAlike" /></cc:License></rdf:RDF></metadata></svg>
